solid Exported from Blender-3.1.2
facet normal -0.764009 0.151971 0.627052
outer loop
vertex 0.002959 -0.000000 -0.000000
vertex 0.002733 -0.001132 -0.000000
vertex 0.018612 -0.007709 0.020941
endloop
endfacet
facet normal -0.764009 0.151971 0.627053
outer loop
vertex 0.002959 -0.000000 -0.000000
vertex 0.018612 -0.007709 0.020941
vertex 0.020146 0.000000 0.020941
endloop
endfacet
facet normal 0.764009 0.151969 0.627053
outer loop
vertex -0.002733 -0.001132 -0.000000
vertex -0.002959 -0.000000 -0.000000
vertex -0.020146 -0.000000 0.020941
endloop
endfacet
facet normal 0.764009 0.151971 0.627052
outer loop
vertex -0.002733 -0.001132 -0.000000
vertex -0.020146 -0.000000 0.020941
vertex -0.018612 -0.007709 0.020941
endloop
endfacet
facet normal -0.764009 -0.151971 0.627053
outer loop
vertex 0.002733 0.001132 -0.000000
vertex 0.002959 -0.000000 -0.000000
vertex 0.020146 0.000000 0.020941
endloop
endfacet
facet normal -0.764009 -0.151971 0.627053
outer loop
vertex 0.002733 0.001132 -0.000000
vertex 0.020146 0.000000 0.020941
vertex 0.018612 0.007709 0.020941
endloop
endfacet
facet normal 0.647695 0.432778 0.627052
outer loop
vertex -0.002092 -0.002092 -0.000000
vertex -0.002733 -0.001132 -0.000000
vertex -0.018612 -0.007709 0.020941
endloop
endfacet
facet normal 0.647696 0.432776 0.627053
outer loop
vertex -0.002092 -0.002092 -0.000000
vertex -0.018612 -0.007709 0.020941
vertex -0.014245 -0.014245 0.020941
endloop
endfacet
facet normal -0.647695 -0.432776 0.627053
outer loop
vertex 0.002092 0.002092 -0.000000
vertex 0.002733 0.001132 -0.000000
vertex 0.018612 0.007709 0.020941
endloop
endfacet
facet normal -0.647696 -0.432776 0.627053
outer loop
vertex 0.002092 0.002092 -0.000000
vertex 0.018612 0.007709 0.020941
vertex 0.014245 0.014245 0.020941
endloop
endfacet
facet normal 0.432777 0.647696 0.627052
outer loop
vertex -0.001132 -0.002733 -0.000000
vertex -0.002092 -0.002092 -0.000000
vertex -0.014245 -0.014245 0.020941
endloop
endfacet
facet normal 0.432776 0.647696 0.627053
outer loop
vertex -0.001132 -0.002733 -0.000000
vertex -0.014245 -0.014245 0.020941
vertex -0.007709 -0.018612 0.020941
endloop
endfacet
facet normal -0.432777 -0.647695 0.627053
outer loop
vertex 0.001132 0.002733 -0.000000
vertex 0.002092 0.002092 -0.000000
vertex 0.014245 0.014245 0.020941
endloop
endfacet
facet normal -0.432776 -0.647696 0.627053
outer loop
vertex 0.001132 0.002733 -0.000000
vertex 0.014245 0.014245 0.020941
vertex 0.007709 0.018612 0.020941
endloop
endfacet
facet normal 0.151970 0.764009 0.627053
outer loop
vertex -0.000000 -0.002959 -0.000000
vertex -0.001132 -0.002733 -0.000000
vertex -0.007709 -0.018612 0.020941
endloop
endfacet
facet normal 0.151971 0.764009 0.627053
outer loop
vertex -0.000000 -0.002959 -0.000000
vertex -0.007709 -0.018612 0.020941
vertex 0.000000 -0.020146 0.020941
endloop
endfacet
facet normal 0.151971 -0.764009 0.627053
outer loop
vertex -0.001132 0.002733 -0.000000
vertex -0.000000 0.002959 -0.000000
vertex 0.000000 0.020146 0.020941
endloop
endfacet
facet normal 0.151971 -0.764009 0.627053
outer loop
vertex -0.001132 0.002733 -0.000000
vertex 0.000000 0.020146 0.020941
vertex -0.007709 0.018612 0.020941
endloop
endfacet
facet normal -0.151970 -0.764009 0.627052
outer loop
vertex -0.000000 0.002959 -0.000000
vertex 0.001132 0.002733 -0.000000
vertex 0.007709 0.018612 0.020941
endloop
endfacet
facet normal -0.151971 -0.764009 0.627053
outer loop
vertex -0.000000 0.002959 -0.000000
vertex 0.007709 0.018612 0.020941
vertex 0.000000 0.020146 0.020941
endloop
endfacet
facet normal -0.151971 0.764009 0.627053
outer loop
vertex 0.001132 -0.002733 -0.000000
vertex -0.000000 -0.002959 -0.000000
vertex 0.000000 -0.020146 0.020941
endloop
endfacet
facet normal -0.151971 0.764009 0.627053
outer loop
vertex 0.001132 -0.002733 -0.000000
vertex 0.000000 -0.020146 0.020941
vertex 0.007709 -0.018612 0.020941
endloop
endfacet
facet normal 0.432778 -0.647695 0.627052
outer loop
vertex -0.002092 0.002092 -0.000000
vertex -0.001132 0.002733 -0.000000
vertex -0.007709 0.018612 0.020941
endloop
endfacet
facet normal 0.432776 -0.647696 0.627053
outer loop
vertex -0.002092 0.002092 -0.000000
vertex -0.007709 0.018612 0.020941
vertex -0.014245 0.014245 0.020941
endloop
endfacet
facet normal -0.432777 0.647695 0.627052
outer loop
vertex 0.002092 -0.002092 -0.000000
vertex 0.001132 -0.002733 -0.000000
vertex 0.007709 -0.018612 0.020941
endloop
endfacet
facet normal -0.432776 0.647696 0.627053
outer loop
vertex 0.002092 -0.002092 -0.000000
vertex 0.007709 -0.018612 0.020941
vertex 0.014245 -0.014245 0.020941
endloop
endfacet
facet normal 0.647695 -0.432776 0.627053
outer loop
vertex -0.002733 0.001132 -0.000000
vertex -0.002092 0.002092 -0.000000
vertex -0.014245 0.014245 0.020941
endloop
endfacet
facet normal 0.647696 -0.432776 0.627053
outer loop
vertex -0.002733 0.001132 -0.000000
vertex -0.014245 0.014245 0.020941
vertex -0.018612 0.007709 0.020941
endloop
endfacet
facet normal -0.647696 0.432776 0.627053
outer loop
vertex 0.002733 -0.001132 -0.000000
vertex 0.002092 -0.002092 -0.000000
vertex 0.014245 -0.014245 0.020941
endloop
endfacet
facet normal -0.647695 0.432777 0.627053
outer loop
vertex 0.002733 -0.001132 -0.000000
vertex 0.014245 -0.014245 0.020941
vertex 0.018612 -0.007709 0.020941
endloop
endfacet
facet normal 0.764009 -0.151970 0.627053
outer loop
vertex -0.002959 -0.000000 -0.000000
vertex -0.002733 0.001132 -0.000000
vertex -0.018612 0.007709 0.020941
endloop
endfacet
facet normal 0.764009 -0.151971 0.627053
outer loop
vertex -0.002959 -0.000000 -0.000000
vertex -0.018612 0.007709 0.020941
vertex -0.020146 -0.000000 0.020941
endloop
endfacet
facet normal -0.764009 0.151971 -0.627053
outer loop
vertex 0.002959 -0.000000 -0.000000
vertex 0.020146 0.000000 -0.020941
vertex 0.018612 -0.007709 -0.020941
endloop
endfacet
facet normal -0.764009 0.151971 -0.627052
outer loop
vertex 0.002959 -0.000000 -0.000000
vertex 0.018612 -0.007709 -0.020941
vertex 0.002733 -0.001132 -0.000000
endloop
endfacet
facet normal 0.764009 0.151971 -0.627052
outer loop
vertex -0.002733 -0.001132 -0.000000
vertex -0.018612 -0.007709 -0.020941
vertex -0.020146 -0.000000 -0.020941
endloop
endfacet
facet normal 0.764009 0.151969 -0.627053
outer loop
vertex -0.002733 -0.001132 -0.000000
vertex -0.020146 -0.000000 -0.020941
vertex -0.002959 -0.000000 -0.000000
endloop
endfacet
facet normal -0.764009 -0.151971 -0.627053
outer loop
vertex 0.002733 0.001132 -0.000000
vertex 0.018612 0.007709 -0.020941
vertex 0.020146 0.000000 -0.020941
endloop
endfacet
facet normal -0.764009 -0.151971 -0.627053
outer loop
vertex 0.002733 0.001132 -0.000000
vertex 0.020146 0.000000 -0.020941
vertex 0.002959 -0.000000 -0.000000
endloop
endfacet
facet normal 0.647696 0.432776 -0.627053
outer loop
vertex -0.002092 -0.002092 -0.000000
vertex -0.014245 -0.014245 -0.020941
vertex -0.018612 -0.007709 -0.020941
endloop
endfacet
facet normal 0.647695 0.432778 -0.627052
outer loop
vertex -0.002092 -0.002092 -0.000000
vertex -0.018612 -0.007709 -0.020941
vertex -0.002733 -0.001132 -0.000000
endloop
endfacet
facet normal -0.647696 -0.432776 -0.627053
outer loop
vertex 0.002092 0.002092 -0.000000
vertex 0.014245 0.014245 -0.020941
vertex 0.018612 0.007709 -0.020941
endloop
endfacet
facet normal -0.647695 -0.432776 -0.627053
outer loop
vertex 0.002092 0.002092 -0.000000
vertex 0.018612 0.007709 -0.020941
vertex 0.002733 0.001132 -0.000000
endloop
endfacet
facet normal 0.432776 0.647696 -0.627053
outer loop
vertex -0.001132 -0.002733 -0.000000
vertex -0.007709 -0.018612 -0.020941
vertex -0.014245 -0.014245 -0.020941
endloop
endfacet
facet normal 0.432777 0.647696 -0.627052
outer loop
vertex -0.001132 -0.002733 -0.000000
vertex -0.014245 -0.014245 -0.020941
vertex -0.002092 -0.002092 -0.000000
endloop
endfacet
facet normal -0.432776 -0.647696 -0.627053
outer loop
vertex 0.001132 0.002733 -0.000000
vertex 0.007709 0.018612 -0.020941
vertex 0.014245 0.014245 -0.020941
endloop
endfacet
facet normal -0.432777 -0.647695 -0.627053
outer loop
vertex 0.001132 0.002733 -0.000000
vertex 0.014245 0.014245 -0.020941
vertex 0.002092 0.002092 -0.000000
endloop
endfacet
facet normal 0.151971 0.764009 -0.627053
outer loop
vertex -0.000000 -0.002959 -0.000000
vertex 0.000000 -0.020146 -0.020941
vertex -0.007709 -0.018612 -0.020941
endloop
endfacet
facet normal 0.151970 0.764009 -0.627053
outer loop
vertex -0.000000 -0.002959 -0.000000
vertex -0.007709 -0.018612 -0.020941
vertex -0.001132 -0.002733 -0.000000
endloop
endfacet
facet normal 0.151971 -0.764009 -0.627053
outer loop
vertex -0.001132 0.002733 -0.000000
vertex -0.007709 0.018612 -0.020941
vertex 0.000000 0.020146 -0.020941
endloop
endfacet
facet normal 0.151971 -0.764009 -0.627053
outer loop
vertex -0.001132 0.002733 -0.000000
vertex 0.000000 0.020146 -0.020941
vertex -0.000000 0.002959 -0.000000
endloop
endfacet
facet normal -0.151971 -0.764009 -0.627053
outer loop
vertex -0.000000 0.002959 -0.000000
vertex 0.000000 0.020146 -0.020941
vertex 0.007709 0.018612 -0.020941
endloop
endfacet
facet normal -0.151970 -0.764009 -0.627052
outer loop
vertex -0.000000 0.002959 -0.000000
vertex 0.007709 0.018612 -0.020941
vertex 0.001132 0.002733 -0.000000
endloop
endfacet
facet normal -0.151971 0.764009 -0.627053
outer loop
vertex 0.001132 -0.002733 -0.000000
vertex 0.007709 -0.018612 -0.020941
vertex 0.000000 -0.020146 -0.020941
endloop
endfacet
facet normal -0.151971 0.764009 -0.627053
outer loop
vertex 0.001132 -0.002733 -0.000000
vertex 0.000000 -0.020146 -0.020941
vertex -0.000000 -0.002959 -0.000000
endloop
endfacet
facet normal 0.432776 -0.647696 -0.627053
outer loop
vertex -0.002092 0.002092 -0.000000
vertex -0.014245 0.014245 -0.020941
vertex -0.007709 0.018612 -0.020941
endloop
endfacet
facet normal 0.432778 -0.647695 -0.627052
outer loop
vertex -0.002092 0.002092 -0.000000
vertex -0.007709 0.018612 -0.020941
vertex -0.001132 0.002733 -0.000000
endloop
endfacet
facet normal -0.432776 0.647696 -0.627053
outer loop
vertex 0.002092 -0.002092 -0.000000
vertex 0.014245 -0.014245 -0.020941
vertex 0.007709 -0.018612 -0.020941
endloop
endfacet
facet normal -0.432777 0.647695 -0.627052
outer loop
vertex 0.002092 -0.002092 -0.000000
vertex 0.007709 -0.018612 -0.020941
vertex 0.001132 -0.002733 -0.000000
endloop
endfacet
facet normal 0.647696 -0.432776 -0.627053
outer loop
vertex -0.002733 0.001132 -0.000000
vertex -0.018612 0.007709 -0.020941
vertex -0.014245 0.014245 -0.020941
endloop
endfacet
facet normal 0.647695 -0.432776 -0.627053
outer loop
vertex -0.002733 0.001132 -0.000000
vertex -0.014245 0.014245 -0.020941
vertex -0.002092 0.002092 -0.000000
endloop
endfacet
facet normal -0.647695 0.432777 -0.627053
outer loop
vertex 0.002733 -0.001132 -0.000000
vertex 0.018612 -0.007709 -0.020941
vertex 0.014245 -0.014245 -0.020941
endloop
endfacet
facet normal -0.647696 0.432776 -0.627053
outer loop
vertex 0.002733 -0.001132 -0.000000
vertex 0.014245 -0.014245 -0.020941
vertex 0.002092 -0.002092 -0.000000
endloop
endfacet
facet normal 0.764009 -0.151971 -0.627053
outer loop
vertex -0.002959 -0.000000 -0.000000
vertex -0.020146 -0.000000 -0.020941
vertex -0.018612 0.007709 -0.020941
endloop
endfacet
facet normal 0.764009 -0.151970 -0.627053
outer loop
vertex -0.002959 -0.000000 -0.000000
vertex -0.018612 0.007709 -0.020941
vertex -0.002733 0.001132 -0.000000
endloop
endfacet
facet normal 0.758938 -0.150962 -0.633422
outer loop
vertex 0.003919 -0.000000 -0.000000
vertex 0.020888 0.000000 0.020332
vertex 0.019298 -0.007994 0.020332
endloop
endfacet
facet normal 0.758938 -0.150963 -0.633422
outer loop
vertex 0.003919 -0.000000 -0.000000
vertex 0.019298 -0.007994 0.020332
vertex 0.003621 -0.001500 -0.000000
endloop
endfacet
facet normal -0.758938 -0.150962 -0.633422
outer loop
vertex -0.003621 -0.001500 -0.000000
vertex -0.019298 -0.007994 0.020332
vertex -0.020888 -0.000000 0.020332
endloop
endfacet
facet normal -0.758938 -0.150961 -0.633422
outer loop
vertex -0.003621 -0.001500 -0.000000
vertex -0.020888 -0.000000 0.020332
vertex -0.003919 -0.000000 -0.000000
endloop
endfacet
facet normal 0.758938 0.150962 -0.633422
outer loop
vertex 0.003621 0.001500 -0.000000
vertex 0.019298 0.007994 0.020332
vertex 0.020888 0.000000 0.020332
endloop
endfacet
facet normal 0.758938 0.150963 -0.633422
outer loop
vertex 0.003621 0.001500 -0.000000
vertex 0.020888 0.000000 0.020332
vertex 0.003919 -0.000000 -0.000000
endloop
endfacet
facet normal -0.643397 -0.429904 -0.633422
outer loop
vertex -0.002771 -0.002771 -0.000000
vertex -0.014770 -0.014770 0.020332
vertex -0.019298 -0.007994 0.020332
endloop
endfacet
facet normal -0.643397 -0.429904 -0.633422
outer loop
vertex -0.002771 -0.002771 -0.000000
vertex -0.019298 -0.007994 0.020332
vertex -0.003621 -0.001500 -0.000000
endloop
endfacet
facet normal 0.643397 0.429904 -0.633422
outer loop
vertex 0.002771 0.002771 -0.000000
vertex 0.014770 0.014770 0.020332
vertex 0.019298 0.007994 0.020332
endloop
endfacet
facet normal 0.643397 0.429903 -0.633422
outer loop
vertex 0.002771 0.002771 -0.000000
vertex 0.019298 0.007994 0.020332
vertex 0.003621 0.001500 -0.000000
endloop
endfacet
facet normal -0.429904 -0.643397 -0.633422
outer loop
vertex -0.001500 -0.003621 -0.000000
vertex -0.007994 -0.019298 0.020332
vertex -0.014770 -0.014770 0.020332
endloop
endfacet
facet normal -0.429904 -0.643397 -0.633422
outer loop
vertex -0.001500 -0.003621 -0.000000
vertex -0.014770 -0.014770 0.020332
vertex -0.002771 -0.002771 -0.000000
endloop
endfacet
facet normal 0.429904 0.643397 -0.633422
outer loop
vertex 0.001500 0.003621 -0.000000
vertex 0.007994 0.019298 0.020332
vertex 0.014770 0.014770 0.020332
endloop
endfacet
facet normal 0.429904 0.643397 -0.633422
outer loop
vertex 0.001500 0.003621 -0.000000
vertex 0.014770 0.014770 0.020332
vertex 0.002771 0.002771 -0.000000
endloop
endfacet
facet normal -0.150962 -0.758938 -0.633422
outer loop
vertex -0.000000 -0.003919 -0.000000
vertex 0.000000 -0.020888 0.020332
vertex -0.007994 -0.019298 0.020332
endloop
endfacet
facet normal -0.150962 -0.758938 -0.633422
outer loop
vertex -0.000000 -0.003919 -0.000000
vertex -0.007994 -0.019298 0.020332
vertex -0.001500 -0.003621 -0.000000
endloop
endfacet
facet normal -0.150962 0.758938 -0.633422
outer loop
vertex -0.001500 0.003621 -0.000000
vertex -0.007994 0.019298 0.020332
vertex 0.000000 0.020888 0.020332
endloop
endfacet
facet normal -0.150962 0.758938 -0.633422
outer loop
vertex -0.001500 0.003621 -0.000000
vertex 0.000000 0.020888 0.020332
vertex -0.000000 0.003919 -0.000000
endloop
endfacet
facet normal 0.150962 0.758938 -0.633422
outer loop
vertex -0.000000 0.003919 -0.000000
vertex 0.000000 0.020888 0.020332
vertex 0.007994 0.019298 0.020332
endloop
endfacet
facet normal 0.150963 0.758938 -0.633422
outer loop
vertex -0.000000 0.003919 -0.000000
vertex 0.007994 0.019298 0.020332
vertex 0.001500 0.003621 -0.000000
endloop
endfacet
facet normal 0.150962 -0.758938 -0.633422
outer loop
vertex 0.001500 -0.003621 -0.000000
vertex 0.007994 -0.019298 0.020332
vertex 0.000000 -0.020888 0.020332
endloop
endfacet
facet normal 0.150962 -0.758938 -0.633422
outer loop
vertex 0.001500 -0.003621 -0.000000
vertex 0.000000 -0.020888 0.020332
vertex -0.000000 -0.003919 -0.000000
endloop
endfacet
facet normal -0.429904 0.643397 -0.633422
outer loop
vertex -0.002771 0.002771 -0.000000
vertex -0.014770 0.014770 0.020332
vertex -0.007994 0.019298 0.020332
endloop
endfacet
facet normal -0.429905 0.643396 -0.633422
outer loop
vertex -0.002771 0.002771 -0.000000
vertex -0.007994 0.019298 0.020332
vertex -0.001500 0.003621 -0.000000
endloop
endfacet
facet normal 0.429904 -0.643397 -0.633422
outer loop
vertex 0.002771 -0.002771 -0.000000
vertex 0.014770 -0.014770 0.020332
vertex 0.007994 -0.019298 0.020332
endloop
endfacet
facet normal 0.429904 -0.643397 -0.633422
outer loop
vertex 0.002771 -0.002771 -0.000000
vertex 0.007994 -0.019298 0.020332
vertex 0.001500 -0.003621 -0.000000
endloop
endfacet
facet normal -0.643397 0.429904 -0.633422
outer loop
vertex -0.003621 0.001500 -0.000000
vertex -0.019298 0.007994 0.020332
vertex -0.014770 0.014770 0.020332
endloop
endfacet
facet normal -0.643396 0.429904 -0.633422
outer loop
vertex -0.003621 0.001500 -0.000000
vertex -0.014770 0.014770 0.020332
vertex -0.002771 0.002771 -0.000000
endloop
endfacet
facet normal 0.643397 -0.429904 -0.633422
outer loop
vertex 0.003621 -0.001500 -0.000000
vertex 0.019298 -0.007994 0.020332
vertex 0.014770 -0.014770 0.020332
endloop
endfacet
facet normal 0.643397 -0.429904 -0.633422
outer loop
vertex 0.003621 -0.001500 -0.000000
vertex 0.014770 -0.014770 0.020332
vertex 0.002771 -0.002771 -0.000000
endloop
endfacet
facet normal -0.758938 0.150962 -0.633422
outer loop
vertex -0.003919 -0.000000 -0.000000
vertex -0.020888 -0.000000 0.020332
vertex -0.019298 0.007994 0.020332
endloop
endfacet
facet normal -0.758938 0.150962 -0.633422
outer loop
vertex -0.003919 -0.000000 -0.000000
vertex -0.019298 0.007994 0.020332
vertex -0.003621 0.001500 -0.000000
endloop
endfacet
facet normal 0.758938 -0.150963 0.633422
outer loop
vertex 0.003919 -0.000000 -0.000000
vertex 0.003621 -0.001500 -0.000000
vertex 0.019298 -0.007994 -0.020332
endloop
endfacet
facet normal 0.758938 -0.150962 0.633422
outer loop
vertex 0.003919 -0.000000 -0.000000
vertex 0.019298 -0.007994 -0.020332
vertex 0.020888 0.000000 -0.020332
endloop
endfacet
facet normal -0.758938 -0.150961 0.633422
outer loop
vertex -0.003621 -0.001500 -0.000000
vertex -0.003919 -0.000000 -0.000000
vertex -0.020888 -0.000000 -0.020332
endloop
endfacet
facet normal -0.758938 -0.150962 0.633422
outer loop
vertex -0.003621 -0.001500 -0.000000
vertex -0.020888 -0.000000 -0.020332
vertex -0.019298 -0.007994 -0.020332
endloop
endfacet
facet normal 0.758938 0.150963 0.633422
outer loop
vertex 0.003621 0.001500 -0.000000
vertex 0.003919 -0.000000 -0.000000
vertex 0.020888 0.000000 -0.020332
endloop
endfacet
facet normal 0.758938 0.150962 0.633422
outer loop
vertex 0.003621 0.001500 -0.000000
vertex 0.020888 0.000000 -0.020332
vertex 0.019298 0.007994 -0.020332
endloop
endfacet
facet normal -0.643397 -0.429904 0.633422
outer loop
vertex -0.002771 -0.002771 -0.000000
vertex -0.003621 -0.001500 -0.000000
vertex -0.019298 -0.007994 -0.020332
endloop
endfacet
facet normal -0.643397 -0.429904 0.633422
outer loop
vertex -0.002771 -0.002771 -0.000000
vertex -0.019298 -0.007994 -0.020332
vertex -0.014770 -0.014770 -0.020332
endloop
endfacet
facet normal 0.643397 0.429903 0.633422
outer loop
vertex 0.002771 0.002771 -0.000000
vertex 0.003621 0.001500 -0.000000
vertex 0.019298 0.007994 -0.020332
endloop
endfacet
facet normal 0.643397 0.429904 0.633422
outer loop
vertex 0.002771 0.002771 -0.000000
vertex 0.019298 0.007994 -0.020332
vertex 0.014770 0.014770 -0.020332
endloop
endfacet
facet normal -0.429904 -0.643397 0.633422
outer loop
vertex -0.001500 -0.003621 -0.000000
vertex -0.002771 -0.002771 -0.000000
vertex -0.014770 -0.014770 -0.020332
endloop
endfacet
facet normal -0.429904 -0.643397 0.633422
outer loop
vertex -0.001500 -0.003621 -0.000000
vertex -0.014770 -0.014770 -0.020332
vertex -0.007994 -0.019298 -0.020332
endloop
endfacet
facet normal 0.429904 0.643397 0.633422
outer loop
vertex 0.001500 0.003621 -0.000000
vertex 0.002771 0.002771 -0.000000
vertex 0.014770 0.014770 -0.020332
endloop
endfacet
facet normal 0.429904 0.643397 0.633422
outer loop
vertex 0.001500 0.003621 -0.000000
vertex 0.014770 0.014770 -0.020332
vertex 0.007994 0.019298 -0.020332
endloop
endfacet
facet normal -0.150962 -0.758938 0.633422
outer loop
vertex -0.000000 -0.003919 -0.000000
vertex -0.001500 -0.003621 -0.000000
vertex -0.007994 -0.019298 -0.020332
endloop
endfacet
facet normal -0.150962 -0.758938 0.633422
outer loop
vertex -0.000000 -0.003919 -0.000000
vertex -0.007994 -0.019298 -0.020332
vertex 0.000000 -0.020888 -0.020332
endloop
endfacet
facet normal -0.150962 0.758938 0.633422
outer loop
vertex -0.001500 0.003621 -0.000000
vertex -0.000000 0.003919 -0.000000
vertex 0.000000 0.020888 -0.020332
endloop
endfacet
facet normal -0.150962 0.758938 0.633422
outer loop
vertex -0.001500 0.003621 -0.000000
vertex 0.000000 0.020888 -0.020332
vertex -0.007994 0.019298 -0.020332
endloop
endfacet
facet normal 0.150963 0.758938 0.633422
outer loop
vertex -0.000000 0.003919 -0.000000
vertex 0.001500 0.003621 -0.000000
vertex 0.007994 0.019298 -0.020332
endloop
endfacet
facet normal 0.150962 0.758938 0.633422
outer loop
vertex -0.000000 0.003919 -0.000000
vertex 0.007994 0.019298 -0.020332
vertex 0.000000 0.020888 -0.020332
endloop
endfacet
facet normal 0.150962 -0.758938 0.633422
outer loop
vertex 0.001500 -0.003621 -0.000000
vertex -0.000000 -0.003919 -0.000000
vertex 0.000000 -0.020888 -0.020332
endloop
endfacet
facet normal 0.150962 -0.758938 0.633422
outer loop
vertex 0.001500 -0.003621 -0.000000
vertex 0.000000 -0.020888 -0.020332
vertex 0.007994 -0.019298 -0.020332
endloop
endfacet
facet normal -0.429905 0.643396 0.633422
outer loop
vertex -0.002771 0.002771 -0.000000
vertex -0.001500 0.003621 -0.000000
vertex -0.007994 0.019298 -0.020332
endloop
endfacet
facet normal -0.429904 0.643397 0.633422
outer loop
vertex -0.002771 0.002771 -0.000000
vertex -0.007994 0.019298 -0.020332
vertex -0.014770 0.014770 -0.020332
endloop
endfacet
facet normal 0.429904 -0.643397 0.633422
outer loop
vertex 0.002771 -0.002771 -0.000000
vertex 0.001500 -0.003621 -0.000000
vertex 0.007994 -0.019298 -0.020332
endloop
endfacet
facet normal 0.429904 -0.643397 0.633422
outer loop
vertex 0.002771 -0.002771 -0.000000
vertex 0.007994 -0.019298 -0.020332
vertex 0.014770 -0.014770 -0.020332
endloop
endfacet
facet normal -0.643396 0.429904 0.633422
outer loop
vertex -0.003621 0.001500 -0.000000
vertex -0.002771 0.002771 -0.000000
vertex -0.014770 0.014770 -0.020332
endloop
endfacet
facet normal -0.643397 0.429904 0.633422
outer loop
vertex -0.003621 0.001500 -0.000000
vertex -0.014770 0.014770 -0.020332
vertex -0.019298 0.007994 -0.020332
endloop
endfacet
facet normal 0.643397 -0.429904 0.633422
outer loop
vertex 0.003621 -0.001500 -0.000000
vertex 0.002771 -0.002771 -0.000000
vertex 0.014770 -0.014770 -0.020332
endloop
endfacet
facet normal 0.643397 -0.429904 0.633422
outer loop
vertex 0.003621 -0.001500 -0.000000
vertex 0.014770 -0.014770 -0.020332
vertex 0.019298 -0.007994 -0.020332
endloop
endfacet
facet normal -0.758938 0.150962 0.633422
outer loop
vertex -0.003919 -0.000000 -0.000000
vertex -0.003621 0.001500 -0.000000
vertex -0.019298 0.007994 -0.020332
endloop
endfacet
facet normal -0.758938 0.150962 0.633422
outer loop
vertex -0.003919 -0.000000 -0.000000
vertex -0.019298 0.007994 -0.020332
vertex -0.020888 -0.000000 -0.020332
endloop
endfacet
facet normal -0.125201 0.629430 0.766904
outer loop
vertex -0.007709 0.018612 0.020941
vertex 0.000000 0.020146 0.020941
vertex 0.000000 0.020888 0.020332
endloop
endfacet
facet normal -0.125202 0.629429 0.766905
outer loop
vertex -0.007709 0.018612 0.020941
vertex 0.000000 0.020888 0.020332
vertex -0.007994 0.019298 0.020332
endloop
endfacet
facet normal -0.356544 0.533605 0.766904
outer loop
vertex -0.014245 0.014245 0.020941
vertex -0.007709 0.018612 0.020941
vertex -0.007994 0.019298 0.020332
endloop
endfacet
facet normal -0.356542 0.533606 0.766904
outer loop
vertex -0.014245 0.014245 0.020941
vertex -0.007994 0.019298 0.020332
vertex -0.014770 0.014770 0.020332
endloop
endfacet
facet normal -0.533606 0.356544 0.766904
outer loop
vertex -0.018612 0.007709 0.020941
vertex -0.014245 0.014245 0.020941
vertex -0.014770 0.014770 0.020332
endloop
endfacet
facet normal -0.533606 0.356544 0.766903
outer loop
vertex -0.018612 0.007709 0.020941
vertex -0.014770 0.014770 0.020332
vertex -0.019298 0.007994 0.020332
endloop
endfacet
facet normal -0.629431 0.125201 0.766903
outer loop
vertex -0.020146 -0.000000 0.020941
vertex -0.018612 0.007709 0.020941
vertex -0.019298 0.007994 0.020332
endloop
endfacet
facet normal -0.629429 0.125202 0.766905
outer loop
vertex -0.020146 -0.000000 0.020941
vertex -0.019298 0.007994 0.020332
vertex -0.020888 -0.000000 0.020332
endloop
endfacet
facet normal -0.629430 -0.125202 0.766904
outer loop
vertex -0.018612 -0.007709 0.020941
vertex -0.020146 -0.000000 0.020941
vertex -0.020888 -0.000000 0.020332
endloop
endfacet
facet normal -0.629430 -0.125201 0.766904
outer loop
vertex -0.018612 -0.007709 0.020941
vertex -0.020888 -0.000000 0.020332
vertex -0.019298 -0.007994 0.020332
endloop
endfacet
facet normal -0.533603 -0.356543 0.766906
outer loop
vertex -0.014245 -0.014245 0.020941
vertex -0.018612 -0.007709 0.020941
vertex -0.019298 -0.007994 0.020332
endloop
endfacet
facet normal -0.533606 -0.356544 0.766903
outer loop
vertex -0.014245 -0.014245 0.020941
vertex -0.019298 -0.007994 0.020332
vertex -0.014770 -0.014770 0.020332
endloop
endfacet
facet normal -0.356544 -0.533606 0.766904
outer loop
vertex -0.007709 -0.018612 0.020941
vertex -0.014245 -0.014245 0.020941
vertex -0.014770 -0.014770 0.020332
endloop
endfacet
facet normal -0.356542 -0.533604 0.766905
outer loop
vertex -0.007709 -0.018612 0.020941
vertex -0.014770 -0.014770 0.020332
vertex -0.007994 -0.019298 0.020332
endloop
endfacet
facet normal -0.125201 -0.629427 0.766907
outer loop
vertex 0.000000 -0.020146 0.020941
vertex -0.007709 -0.018612 0.020941
vertex -0.007994 -0.019298 0.020332
endloop
endfacet
facet normal -0.125202 -0.629433 0.766902
outer loop
vertex 0.000000 -0.020146 0.020941
vertex -0.007994 -0.019298 0.020332
vertex 0.000000 -0.020888 0.020332
endloop
endfacet
facet normal 0.125201 -0.629432 0.766903
outer loop
vertex 0.007709 -0.018612 0.020941
vertex 0.000000 -0.020146 0.020941
vertex 0.000000 -0.020888 0.020332
endloop
endfacet
facet normal 0.125202 -0.629427 0.766907
outer loop
vertex 0.007709 -0.018612 0.020941
vertex 0.000000 -0.020888 0.020332
vertex 0.007994 -0.019298 0.020332
endloop
endfacet
facet normal 0.356544 -0.533604 0.766905
outer loop
vertex 0.014245 -0.014245 0.020941
vertex 0.007709 -0.018612 0.020941
vertex 0.007994 -0.019298 0.020332
endloop
endfacet
facet normal 0.356541 -0.533605 0.766906
outer loop
vertex 0.014245 -0.014245 0.020941
vertex 0.007994 -0.019298 0.020332
vertex 0.014770 -0.014770 0.020332
endloop
endfacet
facet normal 0.533605 -0.356543 0.766905
outer loop
vertex 0.018612 -0.007709 0.020941
vertex 0.014245 -0.014245 0.020941
vertex 0.014770 -0.014770 0.020332
endloop
endfacet
facet normal 0.533605 -0.356543 0.766905
outer loop
vertex 0.018612 -0.007709 0.020941
vertex 0.014770 -0.014770 0.020332
vertex 0.019298 -0.007994 0.020332
endloop
endfacet
facet normal 0.629429 -0.125202 0.766905
outer loop
vertex 0.020146 0.000000 0.020941
vertex 0.018612 -0.007709 0.020941
vertex 0.019298 -0.007994 0.020332
endloop
endfacet
facet normal 0.629431 -0.125201 0.766904
outer loop
vertex 0.020146 0.000000 0.020941
vertex 0.019298 -0.007994 0.020332
vertex 0.020888 0.000000 0.020332
endloop
endfacet
facet normal 0.629432 0.125202 0.766903
outer loop
vertex 0.018612 0.007709 0.020941
vertex 0.020146 0.000000 0.020941
vertex 0.020888 0.000000 0.020332
endloop
endfacet
facet normal 0.629432 0.125201 0.766903
outer loop
vertex 0.018612 0.007709 0.020941
vertex 0.020888 0.000000 0.020332
vertex 0.019298 0.007994 0.020332
endloop
endfacet
facet normal 0.533605 0.356544 0.766904
outer loop
vertex 0.014245 0.014245 0.020941
vertex 0.018612 0.007709 0.020941
vertex 0.019298 0.007994 0.020332
endloop
endfacet
facet normal 0.533608 0.356542 0.766903
outer loop
vertex 0.014245 0.014245 0.020941
vertex 0.019298 0.007994 0.020332
vertex 0.014770 0.014770 0.020332
endloop
endfacet
facet normal 0.356543 0.533605 0.766905
outer loop
vertex 0.007709 0.018612 0.020941
vertex 0.014245 0.014245 0.020941
vertex 0.014770 0.014770 0.020332
endloop
endfacet
facet normal 0.356542 0.533604 0.766906
outer loop
vertex 0.007709 0.018612 0.020941
vertex 0.014770 0.014770 0.020332
vertex 0.007994 0.019298 0.020332
endloop
endfacet
facet normal 0.125201 0.629428 0.766907
outer loop
vertex 0.000000 0.020146 0.020941
vertex 0.007709 0.018612 0.020941
vertex 0.007994 0.019298 0.020332
endloop
endfacet
facet normal 0.125202 0.629433 0.766902
outer loop
vertex 0.000000 0.020146 0.020941
vertex 0.007994 0.019298 0.020332
vertex 0.000000 0.020888 0.020332
endloop
endfacet
facet normal -0.125201 0.629428 -0.766907
outer loop
vertex 0.000000 0.020146 -0.020941
vertex -0.007709 0.018612 -0.020941
vertex -0.007994 0.019298 -0.020332
endloop
endfacet
facet normal -0.125202 0.629433 -0.766902
outer loop
vertex 0.000000 0.020146 -0.020941
vertex -0.007994 0.019298 -0.020332
vertex 0.000000 0.020888 -0.020332
endloop
endfacet
facet normal -0.356544 0.533606 -0.766904
outer loop
vertex -0.007709 0.018612 -0.020941
vertex -0.014245 0.014245 -0.020941
vertex -0.014770 0.014770 -0.020332
endloop
endfacet
facet normal -0.356542 0.533604 -0.766905
outer loop
vertex -0.007709 0.018612 -0.020941
vertex -0.014770 0.014770 -0.020332
vertex -0.007994 0.019298 -0.020332
endloop
endfacet
facet normal -0.533607 0.356543 -0.766903
outer loop
vertex -0.014245 0.014245 -0.020941
vertex -0.018612 0.007709 -0.020941
vertex -0.019298 0.007994 -0.020332
endloop
endfacet
facet normal -0.533604 0.356545 -0.766905
outer loop
vertex -0.014245 0.014245 -0.020941
vertex -0.019298 0.007994 -0.020332
vertex -0.014770 0.014770 -0.020332
endloop
endfacet
facet normal -0.629430 0.125202 -0.766904
outer loop
vertex -0.018612 0.007709 -0.020941
vertex -0.020146 -0.000000 -0.020941
vertex -0.020888 -0.000000 -0.020332
endloop
endfacet
facet normal -0.629430 0.125202 -0.766905
outer loop
vertex -0.018612 0.007709 -0.020941
vertex -0.020888 -0.000000 -0.020332
vertex -0.019298 0.007994 -0.020332
endloop
endfacet
facet normal -0.629430 -0.125202 -0.766905
outer loop
vertex -0.020146 -0.000000 -0.020941
vertex -0.018612 -0.007709 -0.020941
vertex -0.019298 -0.007994 -0.020332
endloop
endfacet
facet normal -0.629431 -0.125201 -0.766903
outer loop
vertex -0.020146 -0.000000 -0.020941
vertex -0.019298 -0.007994 -0.020332
vertex -0.020888 -0.000000 -0.020332
endloop
endfacet
facet normal -0.533606 -0.356544 -0.766904
outer loop
vertex -0.018612 -0.007709 -0.020941
vertex -0.014245 -0.014245 -0.020941
vertex -0.014770 -0.014770 -0.020332
endloop
endfacet
facet normal -0.533605 -0.356543 -0.766905
outer loop
vertex -0.018612 -0.007709 -0.020941
vertex -0.014770 -0.014770 -0.020332
vertex -0.019298 -0.007994 -0.020332
endloop
endfacet
facet normal -0.356543 -0.533604 -0.766905
outer loop
vertex -0.014245 -0.014245 -0.020941
vertex -0.007709 -0.018612 -0.020941
vertex -0.007994 -0.019298 -0.020332
endloop
endfacet
facet normal -0.356542 -0.533606 -0.766904
outer loop
vertex -0.014245 -0.014245 -0.020941
vertex -0.007994 -0.019298 -0.020332
vertex -0.014770 -0.014770 -0.020332
endloop
endfacet
facet normal -0.125201 -0.629431 -0.766904
outer loop
vertex -0.007709 -0.018612 -0.020941
vertex 0.000000 -0.020146 -0.020941
vertex 0.000000 -0.020888 -0.020332
endloop
endfacet
facet normal -0.125202 -0.629429 -0.766905
outer loop
vertex -0.007709 -0.018612 -0.020941
vertex 0.000000 -0.020888 -0.020332
vertex -0.007994 -0.019298 -0.020332
endloop
endfacet
facet normal 0.125201 -0.629428 -0.766907
outer loop
vertex 0.000000 -0.020146 -0.020941
vertex 0.007709 -0.018612 -0.020941
vertex 0.007994 -0.019298 -0.020332
endloop
endfacet
facet normal 0.125202 -0.629433 -0.766902
outer loop
vertex 0.000000 -0.020146 -0.020941
vertex 0.007994 -0.019298 -0.020332
vertex 0.000000 -0.020888 -0.020332
endloop
endfacet
facet normal 0.356543 -0.533605 -0.766905
outer loop
vertex 0.007709 -0.018612 -0.020941
vertex 0.014245 -0.014245 -0.020941
vertex 0.014770 -0.014770 -0.020332
endloop
endfacet
facet normal 0.356542 -0.533604 -0.766905
outer loop
vertex 0.007709 -0.018612 -0.020941
vertex 0.014770 -0.014770 -0.020332
vertex 0.007994 -0.019298 -0.020332
endloop
endfacet
facet normal 0.533604 -0.356544 -0.766905
outer loop
vertex 0.014245 -0.014245 -0.020941
vertex 0.018612 -0.007709 -0.020941
vertex 0.019298 -0.007994 -0.020332
endloop
endfacet
facet normal 0.533605 -0.356543 -0.766905
outer loop
vertex 0.014245 -0.014245 -0.020941
vertex 0.019298 -0.007994 -0.020332
vertex 0.014770 -0.014770 -0.020332
endloop
endfacet
facet normal 0.629432 -0.125202 -0.766903
outer loop
vertex 0.018612 -0.007709 -0.020941
vertex 0.020146 0.000000 -0.020941
vertex 0.020888 0.000000 -0.020332
endloop
endfacet
facet normal 0.629428 -0.125201 -0.766906
outer loop
vertex 0.018612 -0.007709 -0.020941
vertex 0.020888 0.000000 -0.020332
vertex 0.019298 -0.007994 -0.020332
endloop
endfacet
facet normal 0.629431 0.125201 -0.766903
outer loop
vertex 0.020146 0.000000 -0.020941
vertex 0.018612 0.007709 -0.020941
vertex 0.019298 0.007994 -0.020332
endloop
endfacet
facet normal 0.629433 0.125202 -0.766902
outer loop
vertex 0.020146 0.000000 -0.020941
vertex 0.019298 0.007994 -0.020332
vertex 0.020888 0.000000 -0.020332
endloop
endfacet
facet normal 0.533606 0.356543 -0.766904
outer loop
vertex 0.018612 0.007709 -0.020941
vertex 0.014245 0.014245 -0.020941
vertex 0.014770 0.014770 -0.020332
endloop
endfacet
facet normal 0.533607 0.356544 -0.766903
outer loop
vertex 0.018612 0.007709 -0.020941
vertex 0.014770 0.014770 -0.020332
vertex 0.019298 0.007994 -0.020332
endloop
endfacet
facet normal 0.356543 0.533604 -0.766905
outer loop
vertex 0.014245 0.014245 -0.020941
vertex 0.007709 0.018612 -0.020941
vertex 0.007994 0.019298 -0.020332
endloop
endfacet
facet normal 0.356542 0.533605 -0.766905
outer loop
vertex 0.014245 0.014245 -0.020941
vertex 0.007994 0.019298 -0.020332
vertex 0.014770 0.014770 -0.020332
endloop
endfacet
facet normal 0.125201 0.629431 -0.766904
outer loop
vertex 0.007709 0.018612 -0.020941
vertex 0.000000 0.020146 -0.020941
vertex 0.000000 0.020888 -0.020332
endloop
endfacet
facet normal 0.125202 0.629429 -0.766905
outer loop
vertex 0.007709 0.018612 -0.020941
vertex 0.000000 0.020888 -0.020332
vertex 0.007994 0.019298 -0.020332
endloop
endfacet
endsolid Exported from Blender-3.1.2
